<svg id="Layer_1" data-name="Layer 1" xmlns="http://www.w3.org/2000/svg" xmlns:xlink="http://www.w3.org/1999/xlink" viewBox="0 0 414.64 191.75"><defs><style>.cls-1{fill:url(#radial-gradient);}.cls-2{fill:#6d6e71;}.cls-2,.cls-3{fill-rule:evenodd;}.cls-3{fill:#999;}.cls-4{fill:#1a1a1a;}.cls-5{fill:#f2871c;}.cls-6{fill:#f15a24;}.cls-7{fill:#fbb03b;}.cls-8{font-size:36px;fill:#666;font-family:BankGothic-Medium, Bank Gothic;font-weight:500;}</style><radialGradient id="radial-gradient" cx="207.03" cy="72.4" r="66.86" gradientUnits="userSpaceOnUse"><stop offset="0" stop-color="#fff"/><stop offset="1" stop-color="#fccc21"/></radialGradient></defs><title>Super Container_logo_v2b</title><polygon class="cls-1" points="207.1 0.01 146.2 34.57 146.22 104.47 207.03 144.8 267.86 104.47 267.86 34.5 207.1 0.01"/><polygon class="cls-2" points="147.21 34 179.26 49.52 207.09 33.71 234.91 49.52 266.97 34 207.09 0 147.21 34 147.21 34"/><polygon class="cls-3" points="267.93 35.94 238.59 56.14 238.59 88.95 267.93 104.62 208.3 144.04 210.78 106.54 238.59 88.96 267.93 104.62 267.93 35.94 267.93 35.94"/><polygon class="cls-4" points="203.4 106.54 175.58 88.96 146.24 104.62 205.87 144.04 203.4 106.54"/><polygon class="cls-4" points="175.58 56.14 146.24 35.94 146.24 104.62 175.58 88.95 175.58 56.14"/><polygon class="cls-5" points="179.81 54.69 193.45 62.58 207.09 54.69 193.45 46.82 179.81 54.69"/><polygon class="cls-6" points="179.81 70.44 193.45 78.31 193.45 62.58 179.81 54.69 179.81 70.44"/><polygon class="cls-7" points="193.45 78.31 207.09 70.44 207.09 54.69 193.45 62.58 193.45 78.31"/><polygon class="cls-5" points="179.81 70.43 193.45 78.32 207.09 70.43 193.45 62.56 179.81 70.43"/><polygon class="cls-6" points="179.81 86.18 193.45 94.05 193.45 78.32 179.81 70.43 179.81 86.18"/><polygon class="cls-7" points="193.45 94.05 207.09 86.18 207.09 70.43 193.45 78.32 193.45 94.05"/><polygon class="cls-5" points="207.09 54.69 220.72 62.58 234.36 54.69 220.72 46.82 207.09 54.69"/><polygon class="cls-6" points="207.09 70.44 220.72 78.31 220.72 62.58 207.09 54.69 207.09 70.44"/><polygon class="cls-7" points="220.72 78.31 234.36 70.44 234.36 54.69 220.72 62.58 220.72 78.31"/><polygon class="cls-5" points="207.09 70.43 220.72 78.32 234.36 70.43 220.72 62.56 207.09 70.43"/><polygon class="cls-6" points="207.09 86.18 220.72 94.05 220.72 78.32 207.09 70.43 207.09 86.18"/><polygon class="cls-7" points="220.72 94.05 234.36 86.18 234.36 70.43 220.72 78.32 220.72 94.05"/><text class="cls-8" transform="translate(0 179.79)">SUPERCONTAINERS</text></svg>